<svg xmlns="http://www.w3.org/2000/svg" x="0px" y="0px"
width="50" height="50"
viewBox="0 0 172 172"
style=" fill:#000000;"><g fill="none" fill-rule="nonzero" stroke="none" stroke-width="1" stroke-linecap="butt" stroke-linejoin="miter" stroke-miterlimit="10" stroke-dasharray="" stroke-dashoffset="0" font-family="none" font-weight="none" font-size="none" text-anchor="none" style="mix-blend-mode: normal"><path d="M0,172v-172h172v172z" fill="none"></path><g fill="#ffffff"><path d="M86.1075,6.88c-13.02094,0 -22.15844,9.91688 -27.95,19.135c-4.50156,7.16219 -6.65156,12.99406 -7.6325,15.8025c-0.91375,-0.05375 -1.04812,-0.1075 -2.58,-0.1075c-5.34812,0 -13.98844,0.52406 -22.36,3.655c-8.37156,3.13094 -16.62219,9.245 -19.6725,19.8875c-3.91031,13.66594 2.52625,25.50438 9.5675,33.54c5.375,6.14094 10.30656,9.52719 12.7925,11.18c-0.91375,2.75469 -2.62031,8.4925 -3.225,16.6625c-0.77937,10.61563 0.83313,23.85156 11.2875,32.5725c5.11969,4.27313 11.11281,5.9125 16.8775,5.9125c16.40719,0 30.32844,-11.03219 33.11,-13.33c2.92938,2.01563 17.61656,11.825 34.0775,11.825c5.18688,0 10.48125,-1.06156 15.1575,-4.085c5.34813,-3.46687 8.39844,-8.80156 9.9975,-14.405c1.59906,-5.60344 1.86781,-11.58312 1.505,-17.0925c-0.57781,-8.86875 -2.41875,-15.34562 -3.225,-18.06c2.20375,-1.65281 7.12188,-5.4825 12.5775,-12.04c6.86656,-8.25062 13.47781,-19.96812 9.9975,-32.68c-3.13094,-11.42187 -13.38375,-17.3075 -23.005,-20.21c-9.05687,-2.74125 -17.63,-3.07719 -21.6075,-3.1175c-0.92719,-2.6875 -3.14437,-8.6 -7.74,-15.91c-5.79156,-9.21812 -14.92906,-19.135 -27.95,-19.135zM86.1075,13.76c9.43313,0 16.90438,7.57875 22.145,15.91c5.24063,8.33125 7.8475,16.6625 7.8475,16.6625l0.7525,2.58l2.6875,-0.1075h1.1825c3.17125,0 12.13406,0.22844 20.64,2.795c8.50594,2.56656 16.11156,7.18906 18.3825,15.48c2.59344,9.50031 -2.40531,19.00063 -8.6,26.445c-6.19469,7.44438 -13.115,12.255 -13.115,12.255l-2.15,1.505l0.7525,2.4725c0,0 2.88906,8.69406 3.5475,18.705c0.3225,4.99875 0.09406,10.23938 -1.1825,14.7275c-1.27656,4.48813 -3.49375,8.12969 -7.2025,10.535c-3.37281,2.17688 -7.18906,3.01 -11.395,3.01c-14.70062,0 -32.3575,-11.825 -32.3575,-11.825l-2.15,-1.505l-1.935,1.72c0,0 -16.58187,13.115 -30.745,13.115c-4.50156,0 -8.65375,-1.11531 -12.47,-4.3c-8.0625,-6.71875 -9.51375,-17.37469 -8.815,-26.875c0.69875,-9.50031 3.5475,-17.2 3.5475,-17.2l0.9675,-2.6875l-2.365,-1.505c0,0 -7.18906,-4.27312 -13.4375,-11.395c-6.24844,-7.12187 -11.24719,-16.47437 -8.17,-27.1975c2.35156,-8.21031 8.37156,-12.60437 15.48,-15.265c7.10844,-2.66062 15.13063,-3.225 19.995,-3.225c2.84875,0 4.515,0.215 4.515,0.215l2.795,0.215l0.86,-2.6875c0,0 2.60688,-8.33125 7.8475,-16.6625c5.24063,-8.33125 12.71188,-15.91 22.145,-15.91zM86,62.0275c-9.28531,0 -1.505,24.295 -1.505,24.295c0,0 -20.25031,-14.82156 -23.5425,-6.02c-3.29219,8.80156 22.575,8.9225 22.575,8.9225c0,0 -19.6725,14.90219 -13.0075,20.64c6.665,5.73781 15.48,-18.8125 15.48,-18.8125c0,0 8.12969,24.725 15.48,18.8125c7.33688,-5.92594 -13.0075,-20.64 -13.0075,-20.64c0,0 26.015,-0.14781 22.575,-8.9225c-3.42656,-8.77469 -23.5425,6.02 -23.5425,6.02c0,0 7.78031,-24.295 -1.505,-24.295z"></path></g></g></svg>